<svg xmlns="http://www.w3.org/2000/svg" width="37.861" height="21.857" viewBox="0 0 37.861 21.857">
  <g id="Icon_ionic-ios-menu" data-name="Icon ionic-ios-menu" transform="translate(-4.5 -10.125)">
    <path id="Path_1" data-name="Path 1" d="M40.784,12.375H6.078c-.868,0-1.578-.506-1.578-1.125h0c0-.619.71-1.125,1.578-1.125H40.784c.868,0,1.578.506,1.578,1.125h0C42.361,11.869,41.651,12.375,40.784,12.375Z" fill="#fff"/>
    <path id="Path_2" data-name="Path 2" d="M40.784,19.125H6.078C5.21,19.125,4.5,18.619,4.5,18h0c0-.619.71-1.125,1.578-1.125H40.784c.868,0,1.578.506,1.578,1.125h0C42.361,18.619,41.651,19.125,40.784,19.125Z" transform="translate(0 3.054)" fill="#fff"/>
    <path id="Path_3" data-name="Path 3" d="M40.784,25.875H6.078c-.868,0-1.578-.506-1.578-1.125h0c0-.619.71-1.125,1.578-1.125H40.784c.868,0,1.578.506,1.578,1.125h0C42.361,25.369,41.651,25.875,40.784,25.875Z" transform="translate(0 6.107)" fill="#fff"/>
  </g>
</svg>
