<svg xmlns="http://www.w3.org/2000/svg" width="58.311" height="41" viewBox="0 0 58.311 41">
  <path id="Icon_awesome-youtube" data-name="Icon awesome-youtube" d="M58.143,10.915a7.327,7.327,0,0,0-5.155-5.189C48.44,4.5,30.206,4.5,30.206,4.5S11.971,4.5,7.424,5.726a7.327,7.327,0,0,0-5.155,5.189C1.05,15.492,1.05,25.041,1.05,25.041s0,9.549,1.218,14.126a7.218,7.218,0,0,0,5.155,5.106C11.971,45.5,30.206,45.5,30.206,45.5s18.234,0,22.782-1.226a7.218,7.218,0,0,0,5.155-5.106c1.218-4.577,1.218-14.126,1.218-14.126s0-9.549-1.218-14.126Zm-33.9,22.8V16.371l15.24,8.67-15.24,8.67Z" transform="translate(-1.05 -4.5)" fill="red"/>
</svg>
